<svg xmlns="http://www.w3.org/2000/svg" xmlns:xlink="http://www.w3.org/1999/xlink" id="body_1" preserveAspectRatio="xMinYMin meet" viewBox="0 0 793 1121"><defs><clipPath id="1"><path clip-rule="evenodd" d="M0 841L0 -0.9000244L0 -0.9000244L595.3 -0.9000244L595.3 -0.9000244L595.3 841L595.3 841L0 841z" /></clipPath><clipPath id="2"><path clip-rule="evenodd" d="M0 -0.9000244L595.3 -0.9000244L595.3 -0.9000244L595.3 841L595.3 841L0 841z" /></clipPath><clipPath id="3"><path clip-rule="evenodd" d="M0 -0.9000244L595.3 -0.9000244L595.3 -0.9000244L595.3 841L595.3 841L0 841z" /></clipPath><clipPath id="4"><path clip-rule="evenodd" d="M180 230.098L574.5 230.098L574.5 230.098L574.5 266.098L574.5 266.098L180 266.098z" /></clipPath><clipPath id="5"><path clip-rule="evenodd" d="M0 -0.9000244L595.3 -0.9000244L595.3 -0.9000244L595.3 841L595.3 841L0 841z" /></clipPath><clipPath id="6"><path clip-rule="evenodd" d="M0 -0.9000244L595.3 -0.9000244L595.3 -0.9000244L595.3 841L595.3 841L0 841z" /></clipPath><clipPath id="7"><path clip-rule="evenodd" d="M211.496 194.85L386.996 194.85L386.996 194.85L386.996 218.85L386.996 218.85L211.496 218.85z" /></clipPath><clipPath id="8"><path clip-rule="evenodd" d="M0 -0.9000244L595.3 -0.9000244L595.3 -0.9000244L595.3 841L595.3 841L0 841z" /></clipPath><clipPath id="9"><path clip-rule="evenodd" d="M0 -0.9000244L595.3 -0.9000244L595.3 -0.9000244L595.3 841L595.3 841L0 841z" /></clipPath><clipPath id="10"><path clip-rule="evenodd" d="M180.099 310.1L591.749 310.1L591.749 310.1L591.749 642.85L591.749 642.85L180.099 642.85z" /></clipPath><clipPath id="11"><path clip-rule="evenodd" d="M0 -0.9000244L595.3 -0.9000244L595.3 -0.9000244L595.3 841L595.3 841L0 841z" /></clipPath><clipPath id="12"><path clip-rule="evenodd" d="M180.099 310.1L591.749 310.1L591.749 310.1L591.749 642.85L591.749 642.85L180.099 642.85z" /></clipPath><clipPath id="13"><path clip-rule="evenodd" d="M-1638.401 328.1L2230.099 328.1L2230.099 328.1L2230.099 346.2L2230.099 346.2L-1638.401 346.2z" /></clipPath><clipPath id="14"><path clip-rule="evenodd" d="M180.099 310.1L591.749 310.1L591.749 310.1L591.749 642.85L591.749 642.85L180.099 642.85z" /></clipPath><clipPath id="15"><path clip-rule="evenodd" d="M-1638.401 346.1L2230.099 346.1L2230.099 346.1L2230.099 364.2L2230.099 364.2L-1638.401 364.2z" /></clipPath><clipPath id="16"><path clip-rule="evenodd" d="M180.099 310.1L591.749 310.1L591.749 310.1L591.749 642.85L591.749 642.85L180.099 642.85z" /></clipPath><clipPath id="17"><path clip-rule="evenodd" d="M180.099 310.1L591.749 310.1L591.749 310.1L591.749 642.85L591.749 642.85L180.099 642.85z" /></clipPath><clipPath id="18"><path clip-rule="evenodd" d="M-1638.401 390.65L2230.099 390.65L2230.099 390.65L2230.099 408.75L2230.099 408.75L-1638.401 408.75z" /></clipPath><clipPath id="19"><path clip-rule="evenodd" d="M180.099 310.1L591.749 310.1L591.749 310.1L591.749 642.85L591.749 642.85L180.099 642.85z" /></clipPath><clipPath id="20"><path clip-rule="evenodd" d="M-1638.401 408.6L2230.099 408.6L2230.099 408.6L2230.099 426.7L2230.099 426.7L-1638.401 426.7z" /></clipPath><clipPath id="21"><path clip-rule="evenodd" d="M180.099 310.1L591.749 310.1L591.749 310.1L591.749 642.85L591.749 642.85L180.099 642.85z" /></clipPath><clipPath id="22"><path clip-rule="evenodd" d="M-1638.401 426.6L2230.099 426.6L2230.099 426.6L2230.099 444.7L2230.099 444.7L-1638.401 444.7z" /></clipPath><clipPath id="23"><path clip-rule="evenodd" d="M180.099 310.1L591.749 310.1L591.749 310.1L591.749 642.85L591.749 642.85L180.099 642.85z" /></clipPath><clipPath id="24"><path clip-rule="evenodd" d="M180.099 310.1L591.749 310.1L591.749 310.1L591.749 642.85L591.749 642.85L180.099 642.85z" /></clipPath><clipPath id="25"><path clip-rule="evenodd" d="M-1638.401 480.75L2230.099 480.75L2230.099 480.75L2230.099 498.85L2230.099 498.85L-1638.401 498.85z" /></clipPath><clipPath id="26"><path clip-rule="evenodd" d="M180.099 310.1L591.749 310.1L591.749 310.1L591.749 642.85L591.749 642.85L180.099 642.85z" /></clipPath><clipPath id="27"><path clip-rule="evenodd" d="M-1638.401 498.75L2230.099 498.75L2230.099 498.75L2230.099 516.85L2230.099 516.85L-1638.401 516.85z" /></clipPath><clipPath id="28"><path clip-rule="evenodd" d="M180.099 310.1L591.749 310.1L591.749 310.1L591.749 642.85L591.749 642.85L180.099 642.85z" /></clipPath><clipPath id="29"><path clip-rule="evenodd" d="M180.099 310.1L591.749 310.1L591.749 310.1L591.749 642.85L591.749 642.85L180.099 642.85z" /></clipPath><clipPath id="30"><path clip-rule="evenodd" d="M-1638.401 552.75L2230.099 552.75L2230.099 552.75L2230.099 570.85L2230.099 570.85L-1638.401 570.85z" /></clipPath><clipPath id="31"><path clip-rule="evenodd" d="M180.099 310.1L591.749 310.1L591.749 310.1L591.749 642.85L591.749 642.85L180.099 642.85z" /></clipPath><clipPath id="32"><path clip-rule="evenodd" d="M180.099 310.1L591.749 310.1L591.749 310.1L591.749 642.85L591.749 642.85L180.099 642.85z" /></clipPath><clipPath id="33"><path clip-rule="evenodd" d="M-1638.401 588.75L2230.099 588.75L2230.099 588.75L2230.099 606.85L2230.099 606.85L-1638.401 606.85z" /></clipPath><clipPath id="34"><path clip-rule="evenodd" d="M180.099 310.1L591.749 310.1L591.749 310.1L591.749 642.85L591.749 642.85L180.099 642.85z" /></clipPath><clipPath id="35"><path clip-rule="evenodd" d="M180.099 310.1L591.749 310.1L591.749 310.1L591.749 642.85L591.749 642.85L180.099 642.85z" /></clipPath><clipPath id="36"><path clip-rule="evenodd" d="M-1638.401 624.75L2230.099 624.75L2230.099 624.75L2230.099 642.85L2230.099 642.85L-1638.401 642.85z" /></clipPath><clipPath id="37"><path clip-rule="evenodd" d="M0 -0.9000244L595.3 -0.9000244L595.3 -0.9000244L595.3 841L595.3 841L0 841z" /></clipPath><clipPath id="38"><path clip-rule="evenodd" d="M0 -0.9000244L595.3 -0.9000244L595.3 -0.9000244L595.3 841L595.3 841L0 841z" /></clipPath><clipPath id="39"><path clip-rule="evenodd" d="M212.979 277.848L396.179 277.848L396.179 277.848L396.179 301.848L396.179 301.848L212.979 301.848z" /></clipPath><clipPath id="40"><path clip-rule="evenodd" d="M0 -0.9000244L595.3 -0.9000244L595.3 -0.9000244L595.3 841L595.3 841L0 841z" /></clipPath><clipPath id="41"><path clip-rule="evenodd" d="M180 696.095L574.5 696.095L574.5 696.095L574.5 804.145L574.5 804.145L180 804.145z" /></clipPath><clipPath id="42"><path clip-rule="evenodd" d="M0 -0.9000244L595.3 -0.9000244L595.3 -0.9000244L595.3 841L595.3 841L0 841z" /></clipPath><clipPath id="43"><path clip-rule="evenodd" d="M0 -0.9000244L595.3 -0.9000244L595.3 -0.9000244L595.3 841L595.3 841L0 841z" /></clipPath><clipPath id="44"><path clip-rule="evenodd" d="M211.496 663.1L386.996 663.1L386.996 663.1L386.996 687.1L386.996 687.1L211.496 687.1z" /></clipPath><clipPath id="45"><path clip-rule="evenodd" d="M0 -0.9000244L595.3 -0.9000244L595.3 -0.9000244L595.3 841L595.3 841L0 841z" /></clipPath><clipPath id="46"><path clip-rule="evenodd" d="M180 68.09998L423.75 68.09998L423.75 68.09998L423.75 86.09998L423.75 86.09998L180 86.09998z" /></clipPath><clipPath id="47"><path clip-rule="evenodd" d="M0 -0.9000244L595.3 -0.9000244L595.3 -0.9000244L595.3 841L595.3 841L0 841z" /></clipPath><clipPath id="48"><path clip-rule="evenodd" d="M18.75 605.7L90.05 605.7L90.05 605.7L90.05 629.0499L90.05 629.0499L18.75 629.0499z" /></clipPath><clipPath id="49"><path clip-rule="evenodd" d="M0 -0.9000244L595.3 -0.9000244L595.3 -0.9000244L595.3 841L595.3 841L0 841z" /></clipPath><clipPath id="50"><path clip-rule="evenodd" d="M21.15 663.85L60.05 663.85L60.05 663.85L60.05 680.4L60.05 680.4L21.15 680.4z" /></clipPath><clipPath id="51"><path clip-rule="evenodd" d="M0 -0.9000244L595.3 -0.9000244L595.3 -0.9000244L595.3 841L595.3 841L0 841z" /></clipPath><clipPath id="52"><path clip-rule="evenodd" d="M21.15 785.45L60.05 785.45L60.05 785.45L60.05 801.9999L60.05 801.9999L21.15 801.9999z" /></clipPath><clipPath id="53"><path clip-rule="evenodd" d="M0 -0.9000244L595.3 -0.9000244L595.3 -0.9000244L595.3 841L595.3 841L0 841z" /></clipPath><clipPath id="54"><path clip-rule="evenodd" d="M72.6 785.5L111.5 785.5L111.5 785.5L111.5 802.05L111.5 802.05L72.6 802.05z" /></clipPath><clipPath id="55"><path clip-rule="evenodd" d="M0 -0.9000244L595.3 -0.9000244L595.3 -0.9000244L595.3 841L595.3 841L0 841z" /></clipPath><clipPath id="56"><path clip-rule="evenodd" d="M72.6 724.65L111.5 724.65L111.5 724.65L111.5 741.2L111.5 741.2L72.6 741.2z" /></clipPath><clipPath id="57"><path clip-rule="evenodd" d="M0 -0.9000244L595.3 -0.9000244L595.3 -0.9000244L595.3 841L595.3 841L0 841z" /></clipPath><clipPath id="58"><path clip-rule="evenodd" d="M0 -0.9000244L595.3 -0.9000244L595.3 -0.9000244L595.3 841L595.3 841L0 841z" /></clipPath><clipPath id="59"><path clip-rule="evenodd" d="M21.15 724.65L60.05 724.65L60.05 724.65L60.05 741.2L60.05 741.2L21.15 741.2z" /></clipPath><clipPath id="60"><path clip-rule="evenodd" d="M0 -0.9000244L595.3 -0.9000244L595.3 -0.9000244L595.3 841L595.3 841L0 841z" /></clipPath><clipPath id="61"><path clip-rule="evenodd" d="M0 -0.9000244L595.3 -0.9000244L595.3 -0.9000244L595.3 841L595.3 841L0 841z" /></clipPath><clipPath id="62"><path clip-rule="evenodd" d="M72.6 663.8L111.5 663.8L111.5 663.8L111.5 680.35L111.5 680.35L72.6 680.35z" /></clipPath><clipPath id="63"><path clip-rule="evenodd" d="M0 -0.9000244L595.3 -0.9000244L595.3 -0.9000244L595.3 841L595.3 841L0 841z" /></clipPath><clipPath id="64"><path clip-rule="evenodd" d="M0 -0.9000244L595.3 -0.9000244L595.3 -0.9000244L595.3 841L595.3 841L0 841z" /></clipPath><clipPath id="65"><path clip-rule="evenodd" d="M180 22.34998L290 22.34998L290 22.34998L290 66.94995L290 66.94995L180 66.94995z" /></clipPath><clipPath id="66"><path clip-rule="evenodd" d="M0 -0.9000244L595.3 -0.9000244L595.3 -0.9000244L595.3 841L595.3 841L0 841z" /></clipPath><clipPath id="67"><path clip-rule="evenodd" d="M0 -0.9000244L595.3 -0.9000244L595.3 -0.9000244L595.3 841L595.3 841L0 841z" /></clipPath><clipPath id="68"><path clip-rule="evenodd" d="M33.65 163.2L154.8 163.2L154.8 163.2L154.8 427.25L154.8 427.25L33.65 427.25z" /></clipPath><clipPath id="69"><path clip-rule="evenodd" d="M0 -0.9000244L595.3 -0.9000244L595.3 -0.9000244L595.3 841L595.3 841L0 841z" /></clipPath><clipPath id="70"><path clip-rule="evenodd" d="M0 -0.9000244L595.3 -0.9000244L595.3 -0.9000244L595.3 841L595.3 841L0 841z" /></clipPath><clipPath id="71"><path clip-rule="evenodd" d="M20.3 445.4L91.60001 445.4L91.60001 445.4L91.60001 461.95L91.60001 461.95L20.3 461.95z" /></clipPath><clipPath id="72"><path clip-rule="evenodd" d="M0 -0.9000244L595.3 -0.9000244L595.3 -0.9000244L595.3 841L595.3 841L0 841z" /></clipPath><clipPath id="73"><path clip-rule="evenodd" d="M20.3 482.1L91.60001 482.1L91.60001 482.1L91.60001 498.65L91.60001 498.65L20.3 498.65z" /></clipPath><clipPath id="74"><path clip-rule="evenodd" d="M0 -0.9000244L595.3 -0.9000244L595.3 -0.9000244L595.3 841L595.3 841L0 841z" /></clipPath><clipPath id="75"><path clip-rule="evenodd" d="M20.3 520.25L91.60001 520.25L91.60001 520.25L91.60001 533.85L91.60001 533.85L20.3 533.85z" /></clipPath><clipPath id="76"><path clip-rule="evenodd" d="M0 -0.9000244L595.3 -0.9000244L595.3 -0.9000244L595.3 841L595.3 841L0 841z" /></clipPath><clipPath id="77"><path clip-rule="evenodd" d="M20.3 553.5L102.5 553.5L102.5 553.5L102.5 568.6L102.5 568.6L20.3 568.6z" /></clipPath><clipPath id="78"><path clip-rule="evenodd" d="M0 -0.9000244L595.3 -0.9000244L595.3 -0.9000244L595.3 841L595.3 841L0 841z" /></clipPath><clipPath id="79"><path clip-rule="evenodd" d="M0 -0.9000244L595.3 -0.9000244L595.3 -0.9000244L595.3 841L595.3 841L0 841z" /></clipPath><clipPath id="80"><path clip-rule="evenodd" d="M18.75 416.7L90.05 416.7L90.05 416.7L90.05 440.05L90.05 440.05L18.75 440.05z" /></clipPath></defs><g transform="matrix(1.333333 0 0 1.333333 0 0)"><g clip-path="url(#1)"><g clip-path="url(#2)"><path transform="matrix(1 0 0 -1 0 841)" d="M0 841.9L152.76 841.9L152.76 841.9L152.76 -1.819946L152.76 -1.819946L0 -1.819946z" stroke="none" fill="#254665" fill-rule="evenodd" /></g><g clip-path="url(#3)"><g clip-path="url(#4)"></g></g><g clip-path="url(#5)"><path transform="matrix(1 0 0 -1 0 841)" d="M211.496 620.978L571.446 620.978L571.446 620.3781L211.496 620.3781z" stroke="none" fill="#254665" fill-rule="nonzero" /></g><g clip-path="url(#6)"><g clip-path="url(#7)"></g></g><g clip-path="url(#8)"><path transform="matrix(1 0 0 -1 0 841)" d="M191.28 631.1801C 191.914 630.887 191.625 630.887 192.348 631.169C 192.348 631.169 192.348 631.169 198.563 633.148C 198.563 633.148 198.563 633.148 198.563 629.897C 198.563 629.615 198.418 629.191 197.984 629.049C 194.082 626.9301 189.313 626.9301 185.699 628.767C 185.555 628.908 185.41 629.191 185.266 629.332C 185.555 629.615 185.699 630.0391 185.699 630.463C 185.699 630.887 185.555 631.311 185.121 631.593C 185.121 631.593 185.121 631.593 185.121 633.148C 185.121 633.148 185.121 633.148 191.336 631.169M201.84 636.34C 202.609 636.257 202.609 635.833 202.031 635.692C 202.031 635.692 202.031 635.692 192.348 632.441C 191.77 632.1591 191.914 632.1591 191.336 632.441C 191.336 632.441 191.336 632.441 186.277 633.996C 186.277 633.996 186.277 633.996 191.914 636.257C 192.059 636.398 192.203 636.681 192.059 636.964C 192.059 637.246 191.77 637.246 191.48 637.246C 191.48 637.246 191.48 637.246 184.832 634.561C 184.832 634.561 184.832 634.561 184.832 634.42C 183.965 633.855 183.676 632.865 183.531 631.593C 183.965 631.452 184.109 631.169 184.109 630.745C 184.109 630.321 183.965 630.0391 183.676 629.897C 183.82 627.778 184.109 625.516 182.23 624.668C 181.652 624.951 181.219 625.092 180.641 625.516C 181.941 627.212 182.375 628.626 182.664 629.756C 182.23 630.0391 181.941 630.321 181.941 630.745C 181.941 631.169 182.23 631.593 182.664 631.735C 182.664 632.865 182.809 633.855 183.82 634.844C 183.82 634.844 183.82 634.844 181.508 635.692C 180.785 635.833 180.785 636.257 181.508 636.398C 181.508 636.398 181.508 636.398 191.191 639.79C 191.77 639.932 191.625 639.932 192.348 639.79C 192.348 639.79 192.348 639.79 201.84 636.34zM177.72 632.26C 177.75 639.932 183.965 646.15 191.625 646.15C 199.285 646.15 205.5 639.932 205.5 632.3C 205.5 624.668 199.285 618.45 191.625 618.45C 183.965 618.45 177.75 624.668 177.72 632.26z" stroke="none" fill="#254665" fill-rule="evenodd" /></g><g clip-path="url(#9)"><g clip-path="url(#10)"></g></g><g clip-path="url(#11)"><g clip-path="url(#12)"><g clip-path="url(#13)"></g></g></g><g clip-path="url(#14)"><g clip-path="url(#15)"></g></g><g clip-path="url(#16)"></g><g clip-path="url(#17)"><g clip-path="url(#18)"></g></g><g clip-path="url(#19)"><g clip-path="url(#20)"></g></g><g clip-path="url(#21)"><g clip-path="url(#22)"></g></g><g clip-path="url(#23)"></g><g clip-path="url(#24)"><g clip-path="url(#25)"></g></g><g clip-path="url(#26)"><g clip-path="url(#27)"></g></g><g clip-path="url(#28)"></g><g clip-path="url(#29)"><g clip-path="url(#30)"></g></g><g clip-path="url(#31)"></g><g clip-path="url(#32)"><g clip-path="url(#33)"></g></g><g clip-path="url(#34)"></g><g clip-path="url(#35)"><g clip-path="url(#36)"></g></g><g clip-path="url(#37)"><path transform="matrix(1 0 0 -1 0 841)" d="M200.637 551.648C 200.637 551.648 200.637 551.648 194.423 549.387C 194.423 549.387 194.423 549.387 194.423 548.6801C 194.423 547.832 193.665 547.832 193.665 547.832C 193.665 547.832 193.665 547.832 190.482 547.832C 189.876 547.832 189.876 548.6801 189.876 548.6801C 189.876 548.6801 189.876 548.6801 189.876 549.387C 189.876 549.387 189.876 549.387 183.813 551.648C 183.813 551.648 183.813 551.648 183.813 544.016C 183.813 543.168 184.419 543.3101 184.419 543.3101C 184.419 543.3101 184.419 543.3101 199.728 543.3101C 200.637 543.3101 200.637 544.158 200.637 544.158C 200.637 544.158 200.637 544.158 200.637 551.648zM194.271 555.746C 194.271 555.746 194.271 555.746 195.484 555.746C 195.484 555.746 195.484 555.746 195.635 557.584C 195.635 558.432 194.574 558.29 194.574 558.29C 194.574 558.29 194.574 558.29 189.573 558.29C 188.663 558.149 188.663 557.584 188.663 557.584C 188.663 557.584 188.663 557.584 188.663 555.746C 188.663 555.746 188.663 555.746 190.027 555.746C 190.027 555.746 190.027 555.746 190.027 556.736C 190.027 557.301 190.33 557.301 190.33 557.301C 190.33 557.301 190.33 557.301 193.968 557.301C 194.423 557.301 194.271 556.736 194.271 556.736C 194.271 556.736 194.271 556.736 194.28 555.7M188.663 555.746C 188.663 555.746 188.663 555.746 195.484 555.746C 195.484 555.746 195.484 555.746 200.031 555.746C 200.789 555.746 200.637 555.04 200.637 555.04C 200.637 555.04 200.637 555.04 200.637 552.213C 200.637 552.213 200.637 552.213 195.332 550.093C 195.332 550.093 195.332 550.093 194.423 550.093C 194.423 550.093 194.423 550.093 194.423 550.6591C 194.423 551.224 193.665 551.083 193.665 551.083C 193.665 551.083 193.665 551.083 190.179 551.083C 189.876 551.083 189.724 550.6591 189.724 550.6591C 189.724 550.6591 189.724 550.6591 189.724 550.093C 189.724 550.093 189.724 550.093 188.966 550.093C 188.966 550.093 188.966 550.093 183.813 552.213C 183.813 552.213 183.813 552.213 183.813 554.898C 183.813 555.8881 184.268 555.746 184.268 555.746C 184.268 555.746 184.268 555.746 188.64 555.7M190.482 549.811C 190.482 549.811 190.482 549.811 190.482 549.245C 190.482 548.397 191.088 548.6801 191.088 548.6801C 191.088 548.6801 191.088 548.6801 193.21 548.6801C 193.816 548.6801 193.665 549.245 193.665 549.245C 193.665 549.245 193.665 549.245 193.665 549.811C 193.665 550.376 193.21 550.376 193.21 550.376C 193.21 550.376 193.21 550.376 191.088 550.376C 190.33 550.376 190.482 549.811 190.44 549.8201M177.72 550.78C 177.75 558.432 184.268 564.65 192.301 564.65C 200.334 564.65 206.7 558.432 206.7 550.8C 206.7 543.168 200.334 536.95 192.301 536.95C 184.268 536.95 177.75 543.168 177.72 550.78z" stroke="none" fill="#254665" fill-rule="evenodd" /><path transform="matrix(1 0 0 -1 0 841)" d="M212.979 537.979L588.729 537.979L588.729 537.379L212.979 537.379z" stroke="none" fill="#254665" fill-rule="nonzero" /></g><g clip-path="url(#38)"><g clip-path="url(#39)"></g></g><g clip-path="url(#40)"><g clip-path="url(#41)"></g></g><g clip-path="url(#42)"><path transform="matrix(1 0 0 -1 0 841)" d="M190.56 161.26C 191.698 162.213 191.698 162.213 191.698 162.213C 191.698 162.213 191.698 162.213 192.424 162.213C 192.424 162.213 192.424 162.213 192.424 158.256C 192.424 158.256 192.424 158.256 191.407 158.256C 191.407 158.256 191.407 158.256 191.407 160.799C 191.407 160.799 191.407 160.799 190.535 160.376C 190.535 160.376 190.535 160.376 190.56 161.26M187.32 160.42C 187.339 157.69 189.373 155.57 191.988 155.57C 194.603 155.57 196.637 157.69 196.637 160.376C 196.637 162.919 194.603 165.039 191.988 165.039C 189.373 165.039 187.339 162.919 187.32 160.42zM187.08 160.42C 187.048 163.061 189.228 165.322 191.988 165.322C 194.749 165.322 196.928 163.061 196.928 160.376C 196.928 157.549 194.749 155.288 191.988 155.288C 189.228 155.288 187.048 157.549 187.08 160.42zM198.48 169.66C 195.039 164.191 195.039 164.191 195.039 164.191C 195.039 164.191 195.039 164.191 194.603 164.6151C 194.603 164.6151 194.603 164.6151 193.877 165.039C 193.877 165.039 193.877 165.039 193.151 165.181C 193.151 165.181 193.151 165.181 192.569 165.322C 192.569 165.322 192.569 165.322 196.492 172.812C 196.492 172.812 196.492 172.812 198.48 169.66zM188.52 163.9C 185.16 169.703 185.16 169.703 185.16 169.703C 185.16 169.703 185.16 169.703 187.484 172.812C 187.484 172.812 187.484 172.812 191.262 165.322C 191.262 165.322 191.262 165.322 190.681 165.181C 190.681 165.181 190.681 165.181 189.809 164.898C 189.809 164.898 189.809 164.898 189.228 164.474C 189.228 164.474 189.228 164.474 188.52 163.9zM194.88 169.66C 196.492 172.812 196.492 172.812 196.492 172.812C 196.492 172.812 196.492 172.812 187.484 172.812C 187.484 172.812 187.484 172.812 189.082 169.703C 189.082 169.703 189.082 169.703 194.88 169.66zM177.72 164.02C 177.75 171.682 183.852 177.9 191.552 177.9C 199.253 177.9 205.5 171.682 205.5 164.05C 205.5 156.418 199.253 150.2 191.552 150.2C 183.852 150.2 177.75 156.418 177.72 164.02z" stroke="none" fill="#254665" fill-rule="evenodd" /><path transform="matrix(1 0 0 -1 0 841)" d="M211.496 151.982L571.446 151.982L571.446 151.382L211.496 151.382z" stroke="none" fill="#254665" fill-rule="nonzero" /></g><g clip-path="url(#43)"><g clip-path="url(#44)"></g></g><g clip-path="url(#45)"><g clip-path="url(#46)"></g></g><g clip-path="url(#47)"><g clip-path="url(#48)"></g></g><g clip-path="url(#49)"><g clip-path="url(#50)"></g></g><g clip-path="url(#51)"><g clip-path="url(#52)"></g></g><g clip-path="url(#53)"><g clip-path="url(#54)"></g></g><g clip-path="url(#55)"><g clip-path="url(#56)"></g></g><g clip-path="url(#57)"><path transform="matrix(1 0 0 -1 0 841)" d="M51.141 116.933C 51.199 117.021 51.258 117.05 51.316 117.108C 51.84 117.575 52.247 118.129 52.48 118.77C 52.654 119.295 52.713 119.82 52.742 120.345C 52.8 121.453 52.567 122.5031 51.956 123.465C 51.752 123.786 51.49 124.107 51.141 124.34C 51.141 121.861 51.141 119.412 51.12 116.98M36 120.94C 35.979 121.978 35.979 122.969 35.979 123.961C 35.979 124.223 35.95 124.486 35.863 124.719C 35.63 125.186 35.223 125.39 34.728 125.419C 34.029 125.448 33.331 125.448 32.662 125.419C 32.225 125.419 31.847 125.215 31.614 124.807C 31.439 124.573 31.439 124.282 31.439 123.9901C 31.439 122.007 31.439 120.024 31.439 118.07C 31.439 117.925 31.439 117.7791 31.439 117.633C 31.497 116.9041 32.021 116.408 32.749 116.379C 33.389 116.379 34.058 116.379 34.699 116.379C 34.99 116.379 35.223 116.467 35.455 116.671C 35.805 116.933 35.95 117.341 35.979 117.7791C 35.979 118.858 35.979 119.908 36 120.94zM49.68 123.94C 49.628 124.136 49.628 124.282 49.599 124.398C 49.482 125.011 48.784 125.448 48.231 125.448C 47.678 125.448 47.125 125.448 46.572 125.448C 45.845 125.448 45.059 124.952 45.059 123.9901C 45.088 121.949 45.088 119.908 45.088 117.837C 45.088 117.575 45.117 117.283 45.263 117.05C 45.554 116.554 46.019 116.35 46.543 116.35C 47.096 116.35 47.678 116.35 48.231 116.35C 48.289 116.35 48.347 116.35 48.406 116.379C 49.104 116.467 49.657 117.283 49.628 117.866C 49.628 118.887 49.628 119.908 49.628 120.957C 49.628 121.978 49.628 122.969 49.68 123.94zM49.8 127.06C 49.832 127.927 49.744 128.7141 49.541 129.531C 49.075 131.251 48.173 132.709 46.805 133.875C 45.263 135.188 43.487 135.888 41.479 136.063C 40.49 136.15 39.5 136.092 38.511 135.888C 37.027 135.596 35.688 135.013 34.524 134.05C 33.127 132.913 32.167 131.455 31.643 129.735C 31.439 129.006 31.323 128.277 31.294 127.518C 31.294 127.373 31.294 127.198 31.294 127.052C 32.371 127.052 33.418 127.052 34.466 127.052C 34.466 127.0811 34.466 127.139 34.466 127.198C 34.495 127.664 34.553 128.131 34.699 128.5681C 35.019 129.5891 35.572 130.493 36.299 131.251C 37.172 132.155 38.191 132.767 39.413 133.059C 40.315 133.263 41.247 133.205 42.178 132.971C 43.313 132.738 44.273 132.213 45.059 131.368C 46.048 130.289 46.572 129.035 46.66 127.577C 46.66 127.402 46.689 127.2271 46.689 127.023C 47.736 127.023 48.784 127.023 49.832 127.023C 49.832 127.0811 49.832 127.0811 49.8 127.06zM28.56 121.54C 28.558 121.861 28.587 122.124 28.675 122.386C 28.849 123.144 29.286 123.786 29.839 124.311C 29.868 124.311 29.868 124.34 29.897 124.34C 29.897 121.89 29.897 119.412 29.897 116.962C 29.606 117.196 29.373 117.458 29.169 117.75C 28.82 118.245 28.646 118.829 28.529 119.412C 28.529 119.499 28.5 119.587 28.5 119.674C 28.5 120.316 28.5 120.957 28.56 121.54z" stroke="none" fill="#92A3B2" fill-rule="evenodd" /></g><g clip-path="url(#58)"><g clip-path="url(#59)"></g></g><g clip-path="url(#60)"><path transform="matrix(1 0 0 -1 0 841)" d="M40.32 180.82C 40.835 180.765 41.284 180.765 41.733 180.765C 41.733 182.184 41.733 183.604 41.733 185.024C 41.209 185.024 40.835 185.024 40.312 185.024C 40.312 183.53 40.312 182.184 40.32 180.82M51.84 186.7C 51.825 187.341 51.451 187.64 50.853 187.2661C 49.508 186.444 48.386 185.398 47.713 183.978C 47.564 183.754 47.564 183.38 47.713 183.156C 48.312 181.736 49.433 180.765 50.629 179.942C 51.377 179.419 51.825 179.718 51.9 180.6151C 51.9 181.587 51.9 182.558 51.9 183.53C 51.9 184.576 51.9 185.622 51.84 186.7zM35.04 188.02C 37.247 188.013 39.34 188.013 41.359 188.013C 40.088 188.462 39.041 189.209 38.219 190.33C 36.948 188.835 36.724 188.686 35.04 188.02zM34.44 182.14C 35.004 182.184 35.453 182.184 35.901 182.184C 35.901 181.213 35.901 180.241 35.901 179.27C 36.425 179.27 36.873 179.345 37.322 179.345C 37.322 181.736 37.322 184.127 37.322 186.519C 36.798 186.519 36.425 186.519 35.901 186.519C 35.901 185.547 35.901 184.576 35.901 183.679C 35.378 183.679 35.004 183.679 34.481 183.679C 34.481 184.651 34.481 185.547 34.481 186.519C 34.032 186.519 33.584 186.519 33.135 186.519C 33.135 184.053 33.135 181.661 33.135 179.345C 33.584 179.345 34.032 179.345 34.481 179.345C 34.481 180.241 34.481 181.213 34.44 182.14zM38.88 186.46C 38.892 184.053 38.892 181.661 38.892 179.27C 38.966 179.27 39.041 179.27 39.041 179.27C 39.938 179.27 40.761 179.27 41.583 179.27C 42.555 179.27 43.228 179.942 43.303 180.8391C 43.303 182.184 43.303 183.53 43.303 184.875C 43.303 185.547 42.63 186.369 42.106 186.444C 41.06 186.444 39.938 186.444 38.88 186.46zM43.68 188.02C 44.499 188.013 45.321 188.013 46.143 188.013C 47.115 188.013 47.564 187.565 47.564 186.594C 47.564 184.202 47.564 181.811 47.564 179.419C 47.564 178.448 46.966 177.85 45.994 177.85C 40.761 177.85 35.453 177.85 30.219 177.85C 29.173 177.85 28.724 178.373 28.724 179.419C 28.724 181.811 28.724 184.202 28.724 186.668C 28.724 187.565 29.023 187.939 29.995 188.013C 30.818 188.013 31.565 188.013 32.462 188.013C 29.92 189.06 28.5 190.853 28.799 193.618C 29.023 195.711 30.219 197.28 32.313 197.8781C 34.705 198.551 36.649 197.803 38.144 195.785C 40.312 198.1021 42.256 198.7 44.424 197.803C 46.368 196.981 47.639 195.113 47.639 193.02C 47.639 190.704 46.368 189.06 43.68 188.02z" stroke="none" fill="#92A3B2" fill-rule="evenodd" /></g><g clip-path="url(#61)"><g clip-path="url(#62)"></g></g><g clip-path="url(#63)"><path transform="matrix(1 0 0 -1 0 841)" d="M36.12 63.82001C 36.067 63.62701 35.97 63.43304 35.97 63.23901C 35.535 63.336 35.148 63.43304 34.761 63.67505C 34.568 63.82001 34.278 63.82001 34.036 63.91705C 33.746 64.06305 33.456 64.16003 33.166 64.354C 32.924 64.49902 32.876 64.69305 33.021 64.98401C 33.118 65.27405 33.214 65.565 33.359 65.80804C 33.601 66.14703 33.939 66.43805 34.229 66.72803C 34.278 66.77704 34.375 66.87402 34.471 66.922C 34.52 66.87402 34.568 66.87402 34.616 66.87402C 34.955 66.87402 34.955 66.87402 34.955 66.87402C 35.148 66.82501 35.39 66.72803 35.438 66.63104C 35.535 66.48602 35.631 66.341 35.631 66.09802C 35.631 66.05005 35.68 66.00104 35.68 65.953C 35.97 65.711 35.97 65.42004 35.97 65.08105C 35.922 64.98401 35.97 64.88702 35.97 64.79004C 36.018 64.69305 36.018 64.547 36.018 64.45001C 36.018 64.30505 36.018 64.16003 36.018 64.06305C 36.067 63.966 36.067 63.86902 36.12 63.82001M48.84 58.06C 48.539 58.05304 48.298 57.81 48.056 57.71405C 48.008 57.71405 47.911 57.617 47.863 57.617C 47.573 57.66504 47.331 57.52002 47.089 57.42303C 46.944 57.37402 46.847 57.27704 46.702 57.229C 46.509 57.18005 46.267 57.13202 46.074 57.08301C 45.977 57.03503 45.88 56.987 45.784 56.93805C 45.735 56.89001 45.687 56.841 45.639 56.841C 45.349 56.79303 45.107 56.74402 44.865 56.69604C 44.817 56.64703 44.769 56.64703 44.72 56.599C 44.624 56.55005 44.478 56.50201 44.333 56.453C 44.092 56.40503 43.85 56.30804 43.608 56.211C 43.463 56.16302 43.367 56.11401 43.222 56.11401C 43.028 56.01703 42.738 56.01703 42.593 55.92004C 42.255 55.67804 41.916 55.72601 41.578 55.58105C 41.529 55.53302 41.481 55.58105 41.481 55.53302C 41.288 55.33905 40.998 55.33905 40.708 55.242C 40.466 55.14502 40.321 55.29004 40.321 55.58105C 40.369 55.72601 40.321 55.823 40.321 55.96899C 40.369 56.11401 40.369 56.211 40.369 56.35602C 40.369 56.453 40.369 56.55005 40.369 56.69604C 40.418 56.79303 40.418 56.93805 40.418 57.08301C 40.466 57.47101 40.466 57.81 40.514 58.198C 40.514 58.29504 40.514 58.39203 40.563 58.44104C 40.563 58.48901 40.563 58.53802 40.563 58.53802C 40.563 58.68304 40.611 58.828 40.659 58.92505C 40.659 58.974 40.659 58.974 40.659 59.02203C 40.659 59.11902 40.659 59.216 40.708 59.31305C 40.708 59.36102 40.708 59.36102 40.708 59.36102C 40.708 59.45801 40.756 59.55505 40.756 59.65204C 40.756 59.79803 40.756 59.89502 40.756 60.04004C 40.756 60.04004 40.756 60.08801 40.756 60.13702C 40.853 60.42804 40.901 60.76703 40.998 61.10602C 41.046 61.30005 41.143 61.54205 41.191 61.73602C 41.094 61.979 41.143 62.17303 41.288 62.31805C 41.336 62.41504 41.336 62.51202 41.336 62.60901C 41.336 62.60901 41.336 62.65704 41.336 62.70605C 41.529 63.04504 41.578 63.43304 41.723 63.77203C 41.868 64.16003 42.061 64.49902 42.255 64.88702C 42.303 64.935 42.351 65.03204 42.351 65.12903C 42.4 65.27405 42.4 65.37103 42.545 65.37103C 42.593 65.37103 42.641 65.42004 42.641 65.42004C 42.69 65.80804 43.028 65.75903 43.27 65.85602C 43.367 65.90405 43.463 65.90405 43.56 65.90405C 43.753 65.85602 43.947 65.80804 44.092 65.75903C 44.237 65.66205 44.382 65.61401 44.478 65.51703C 44.72 65.323 44.914 65.12903 45.155 64.935C 45.349 64.74103 45.542 64.59601 45.687 64.40204C 45.832 64.30505 45.929 64.16003 46.025 64.06305C 46.171 63.82001 46.364 63.578 46.509 63.38403C 46.557 63.336 46.606 63.28705 46.606 63.23901C 46.654 63.19 46.751 63.14203 46.799 63.09302C 46.992 62.75403 47.137 62.36603 47.331 62.02704C 47.379 61.979 47.427 61.93005 47.476 61.88202C 47.524 61.78503 47.621 61.68805 47.669 61.591C 47.718 61.54205 47.718 61.49402 47.766 61.44604C 47.863 61.15503 48.008 60.91205 48.104 60.67004C 48.153 60.62201 48.153 60.62201 48.153 60.573C 48.346 60.33105 48.491 60.04004 48.636 59.79803C 48.733 59.604 48.781 59.41003 48.878 59.216C 48.878 59.11902 48.926 59.02203 48.975 59.02203C 49.168 58.87701 49.168 58.68304 49.216 58.48901C 49.313 58.24701 49.071 57.95605 48.84 58.06zM40.2 62.5C 40.079 62.22101 40.079 61.979 40.079 61.73602C 40.079 61.49402 39.934 61.30005 39.837 61.05804C 39.789 60.71802 39.741 60.37903 39.692 60.04004C 39.692 59.89502 39.644 59.74902 39.644 59.604C 39.644 59.50702 39.596 59.41003 39.596 59.31305C 39.644 59.02203 39.644 58.73102 39.451 58.44104C 39.354 58.34399 39.306 58.24701 39.402 58.10101C 39.451 58.05304 39.354 57.90704 39.306 57.76202C 39.209 57.90704 39.209 58.00403 39.161 58.00403C 38.725 58.24701 38.725 58.586 38.822 58.974C 38.822 59.07104 38.822 59.16803 38.774 59.216C 38.774 59.26501 38.725 59.31305 38.725 59.36102C 38.725 59.70105 38.725 60.04004 38.725 60.37903C 38.725 60.52502 38.677 60.62201 38.677 60.76703C 38.677 60.815 38.629 60.91205 38.629 60.961C 38.677 61.203 38.677 61.44604 38.532 61.63904C 38.532 61.68805 38.58 61.78503 38.58 61.83301C 38.58 61.93005 38.58 62.02704 38.58 62.07605C 38.532 62.31805 38.532 62.56 38.484 62.80304C 38.435 62.99603 38.435 63.23901 38.387 63.43304C 38.387 63.48102 38.387 63.578 38.435 63.67505C 38.435 63.67505 38.435 63.72302 38.435 63.72302C 38.435 64.11102 38.435 64.45001 38.435 64.83801C 38.435 64.83801 38.387 64.83801 38.387 64.88702C 38.387 65.177 38.387 65.51703 38.387 65.85602C 38.435 66.05005 38.435 66.19501 38.484 66.38904C 38.484 66.63104 38.532 66.87402 38.532 67.11603C 38.58 67.21301 38.532 67.26202 38.532 67.35803C 38.532 67.50403 38.58 67.64905 38.58 67.79504C 38.58 67.89203 38.58 68.03705 38.58 68.13403C 38.58 68.27905 38.629 68.37604 38.629 68.52203C 38.629 68.52203 38.677 68.57001 38.677 68.57001C 38.677 68.909 38.725 69.24902 38.725 69.58801C 38.725 69.73303 38.725 69.87903 38.774 69.97601C 38.774 70.02405 38.774 70.073 38.774 70.17004C 38.822 70.60602 38.822 71.04205 38.871 71.47803C 38.871 71.62402 38.967 71.72003 38.967 71.86603C 39.016 71.96301 39.016 72.10803 39.016 72.20502C 39.016 72.35101 39.209 72.78705 39.354 72.83502C 39.354 72.88403 39.402 72.88403 39.451 72.88403C 39.741 72.69 40.127 72.98102 40.418 72.73804C 40.466 72.69 40.563 72.73804 40.659 72.69C 40.756 72.69 40.853 72.69 40.901 72.69C 41.239 72.59302 41.529 72.54401 41.868 72.44702C 41.916 72.44702 41.916 72.44702 41.965 72.39905C 42.303 72.25403 42.641 72.06 42.98 71.86603C 43.222 71.72003 43.512 71.57501 43.753 71.38104C 43.995 71.18701 44.188 70.99402 44.382 70.80005C 44.575 70.65405 44.72 70.46002 44.914 70.315C 45.107 70.12103 45.252 69.927 45.445 69.73303C 45.59 69.58801 45.735 69.39404 45.88 69.20001C 45.977 69.10303 46.025 68.95801 46.074 68.86102C 46.122 68.81201 46.122 68.76404 46.122 68.76404C 46.461 68.47302 46.557 68.03705 46.847 67.698C 46.992 67.45502 47.282 67.26202 47.234 66.922C 47.234 66.77704 47.331 66.68005 47.427 66.53503C 47.573 66.29205 47.718 66.05005 47.863 65.75903C 47.959 65.51703 48.008 65.27405 48.056 65.03204C 48.104 64.935 48.153 64.88702 48.249 64.79004C 48.249 64.74103 48.346 64.69305 48.346 64.64404C 48.394 64.45001 48.443 64.20801 48.491 64.01404C 48.491 63.91705 48.491 63.82001 48.588 63.77203C 48.781 63.48102 48.878 63.19 48.878 62.85101C 48.878 62.75403 48.926 62.65704 49.023 62.56C 49.12 62.41504 49.216 61.93005 49.12 61.78503C 49.071 61.63904 48.926 61.63904 48.829 61.73602C 48.733 61.88202 48.684 62.02704 48.636 62.17303C 48.636 62.31805 48.539 62.36603 48.443 62.41504C 48.394 62.46301 48.346 62.51202 48.298 62.56C 48.249 62.70605 48.201 62.85101 48.104 62.948C 48.056 63.09302 47.959 63.23901 47.863 63.336C 47.718 63.578 47.573 63.86902 47.379 64.11102C 47.379 64.11102 47.331 64.16003 47.282 64.16003C 47.234 64.25702 47.186 64.30505 47.137 64.40204C 47.041 64.49902 46.992 64.59601 46.896 64.64404C 46.896 64.69305 46.847 64.69305 46.847 64.74103C 46.606 65.177 46.219 65.565 45.832 65.85602C 45.639 66.00104 45.445 66.19501 45.252 66.341C 45.204 66.38904 45.059 66.38904 44.962 66.43805C 44.769 66.53503 44.575 66.68005 44.382 66.77704C 44.333 66.82501 44.333 66.82501 44.333 66.82501C 43.947 66.82501 43.608 67.06805 43.173 66.97101C 43.125 66.922 43.028 66.922 42.931 66.922C 42.835 66.922 42.738 66.922 42.69 66.922C 42.303 66.68005 41.965 66.43805 41.723 66.09802C 41.578 65.90405 41.433 65.711 41.336 65.565C 41.288 65.46802 41.239 65.42004 41.191 65.37103C 41.143 65.22601 41.143 65.08105 41.046 65.03204C 40.998 64.935 40.949 64.88702 40.949 64.83801C 40.901 64.49902 40.708 64.25702 40.563 63.966C 40.514 63.91705 40.514 63.86902 40.514 63.82001C 40.563 63.43304 40.321 63.19 40.224 62.85101C 40.224 62.70605 40.224 62.56 40.2 62.5zM37.324 55.33905C 37.275 55.43604 37.082 55.43604 36.985 55.48401C 36.743 55.67804 36.453 55.58105 36.212 55.823C 36.067 56.01703 35.776 56.01703 35.583 56.11401C 35.486 56.11401 35.438 56.11401 35.39 56.16302C 35.1 56.26001 34.858 56.453 34.568 56.55005C 34.375 56.64703 34.181 56.841 33.939 56.79303C 33.891 56.74402 33.794 56.841 33.698 56.89001C 33.456 57.03503 33.214 57.18005 32.924 57.229C 32.682 57.27704 32.441 57.47101 32.199 57.56805C 32.151 57.617 32.054 57.66504 31.957 57.66504C 31.812 57.71405 31.716 57.66504 31.667 57.85901C 31.667 57.85901 31.571 57.90704 31.522 57.90704C 31.377 57.95605 31.184 58.00403 31.039 58.10101C 30.942 58.15002 30.797 58.198 30.797 58.24701C 30.749 58.44104 30.7 58.68304 30.7 58.87701C 30.749 59.16803 30.797 59.45801 30.797 59.74902C 30.845 59.79803 30.797 59.84601 30.845 59.89502C 31.135 60.28204 30.99 60.76703 31.232 61.203C 31.232 61.25201 31.232 61.349 31.232 61.44604C 31.28 61.591 31.329 61.73602 31.377 61.88202C 31.425 62.12402 31.522 62.36603 31.571 62.56C 31.619 62.70605 31.667 62.85101 31.667 62.99603C 31.716 63.14203 31.716 63.23901 31.764 63.336C 31.764 63.38403 31.764 63.43304 31.764 63.43304C 32.054 63.578 31.812 63.966 32.054 64.16003C 32.102 64.20801 32.102 64.30505 32.102 64.40204C 32.102 64.64404 32.102 64.64404 32.247 64.69305C 32.296 64.88702 32.344 65.08105 32.392 65.27405C 32.489 65.42004 32.441 65.66205 32.682 65.75903C 32.682 65.75903 32.682 65.80804 32.682 65.85602C 32.634 66.19501 32.924 66.38904 33.021 66.68005C 33.069 66.82501 33.118 66.922 33.166 67.06805C 33.263 67.31 33.359 67.50403 33.504 67.74603C 33.649 68.03705 33.794 68.27905 33.891 68.57001C 33.988 68.716 34.084 68.86102 34.133 69.00604C 34.229 69.20001 34.326 69.34601 34.471 69.49103C 34.568 69.685 34.713 69.83002 34.858 69.97601C 35.003 70.17004 35.148 70.36304 35.293 70.55701C 35.438 70.75104 35.583 70.94501 35.728 71.18701C 35.776 71.23602 35.825 71.23602 35.873 71.284C 35.922 71.284 36.018 71.284 36.018 71.33301C 36.26 71.72003 36.743 71.81702 37.033 72.15704C 37.13 72.25403 37.275 72.35101 37.42 72.39905C 37.565 72.49603 37.662 72.49603 37.759 72.35101C 37.759 72.302 37.807 72.25403 37.855 72.20502C 38.049 72.10803 37.952 71.96301 37.855 71.81702C 37.807 71.72003 37.759 71.62402 37.759 71.57501C 37.71 71.23602 37.71 70.89703 37.662 70.60602C 37.662 70.50903 37.662 70.46002 37.662 70.36304C 37.662 70.315 37.71 70.315 37.71 70.26703C 37.662 69.87903 37.565 69.539 37.565 69.15204C 37.565 68.86102 37.517 68.52203 37.469 68.23102C 37.42 68.03705 37.517 67.84302 37.42 67.698C 37.372 67.64905 37.372 67.60101 37.372 67.552C 37.517 67.21301 37.372 66.87402 37.324 66.53503C 37.324 66.19501 37.372 65.80804 37.372 65.46802C 37.372 65.37103 37.372 65.27405 37.324 65.22601C 37.324 65.08105 37.324 64.935 37.324 64.79004C 37.324 64.74103 37.372 64.74103 37.372 64.69305C 37.324 64.354 37.324 63.966 37.324 63.62701C 37.324 63.53003 37.324 63.43304 37.324 63.336C 37.324 63.23901 37.372 63.14203 37.372 63.04504C 37.372 62.75403 37.372 62.46301 37.42 62.17303C 37.42 61.78503 37.469 61.39703 37.517 60.961C 37.517 60.91205 37.565 60.815 37.565 60.71802C 37.565 60.62201 37.614 60.47601 37.614 60.37903C 37.614 60.33105 37.614 60.28204 37.614 60.23401C 37.614 59.89502 37.71 59.55505 37.71 59.216C 37.759 58.92505 37.759 58.63403 37.759 58.39203C 37.807 57.617 37.855 56.89001 37.952 56.11401C 37.952 55.77502 37.952 55.48401 38 55.09601C 37.759 55.19305 37.517 55.14502 37.32 55.30005M51.12 58.18005C 51.15 58.24701 51.15 58.29504 51.15 58.34399C 51.102 58.68304 51.053 59.07104 50.957 59.45801C 50.908 59.79803 50.763 60.13702 50.667 60.47601C 50.667 60.47601 50.667 60.52502 50.667 60.573C 50.618 60.815 50.618 61.00903 50.57 61.25201C 50.57 61.25201 50.57 61.30005 50.57 61.30005C 50.231 61.591 50.376 62.02704 50.231 62.41504C 50.231 62.46301 50.183 62.56 50.135 62.60901C 50.086 62.70605 50.038 62.85101 49.99 62.99603C 49.941 63.23901 49.845 63.48102 49.796 63.72302C 49.7 64.01404 49.603 64.30505 49.506 64.59601C 49.506 64.64404 49.458 64.74103 49.41 64.83801C 49.216 65.08105 49.168 65.323 49.12 65.61401C 49.071 65.711 49.071 65.80804 49.023 65.90405C 48.781 66.09802 48.684 66.38904 48.636 66.68005C 48.636 66.72803 48.636 66.82501 48.588 66.82501C 48.394 67.16504 48.201 67.50403 48.008 67.79504C 47.911 67.89203 47.911 68.03705 47.863 68.13403C 47.863 68.18201 47.863 68.23102 47.863 68.27905C 47.718 68.47302 47.573 68.66705 47.427 68.86102C 47.331 69.00604 47.186 69.15204 47.089 69.297C 46.944 69.49103 46.799 69.73303 46.654 69.97601C 46.606 70.073 46.461 70.12103 46.412 70.17004C 46.267 70.36304 46.171 70.60602 46.025 70.80005C 45.832 70.99402 45.639 71.13904 45.445 71.33301C 45.252 71.52704 45.107 71.672 44.914 71.86603C 44.914 71.86603 44.914 71.914 44.865 71.914C 44.478 72.06 44.188 72.39905 43.85 72.59302C 43.608 72.73804 43.415 72.88403 43.222 73.02905C 43.125 73.078 43.076 73.12604 42.98 73.12604C 42.641 73.12604 42.351 73.32001 42.11 73.51404C 42.061 73.56201 42.013 73.56201 41.965 73.56201C 41.675 73.61102 41.433 73.61102 41.191 73.659C 41.094 73.70801 40.998 73.75604 40.901 73.85303C 40.708 73.85303 40.514 73.90204 40.273 73.90204C 40.031 73.90204 39.789 73.90204 39.547 73.90204C 39.451 73.90204 39.354 73.90204 39.257 73.95001C 39.209 73.95001 39.161 73.95001 39.161 73.95001C 39.064 73.90204 39.016 73.90204 38.967 73.90204C 38.774 73.90204 38.629 73.85303 38.435 73.85303C 38.387 73.75604 38.29 73.75604 38.097 73.75604C 38.049 73.75604 37.952 73.70801 37.855 73.659C 37.855 73.659 37.807 73.61102 37.807 73.61102C 37.614 73.56201 37.42 73.56201 37.275 73.46503C 37.033 73.36804 36.743 73.271 36.502 73.17505C 36.308 73.02905 36.115 72.93201 35.922 72.78705C 35.728 72.59302 35.486 72.39905 35.245 72.15704C 35.051 72.01105 34.955 71.81702 34.761 71.62402C 34.568 71.43005 34.375 71.23602 34.229 71.04205C 34.036 70.89703 33.891 70.703 33.794 70.50903C 33.601 70.26703 33.408 69.97601 33.263 69.73303C 33.166 69.44305 33.069 69.20001 32.924 68.95801C 32.827 68.76404 32.634 68.66705 32.586 68.47302C 32.441 68.18201 32.344 67.84302 32.199 67.552C 32.054 67.31 31.957 67.11603 31.812 66.87402C 31.812 66.82501 31.764 66.82501 31.764 66.77704C 31.812 66.43805 31.522 66.14703 31.377 65.85602C 31.377 65.75903 31.329 65.711 31.329 65.66205C 31.377 65.27405 31.135 65.03204 31.039 64.74103C 30.99 64.69305 30.942 64.64404 30.942 64.547C 31.039 64.20801 30.749 63.91705 30.652 63.578C 30.555 63.14203 30.459 62.65704 30.314 62.22101C 30.314 62.17303 30.314 62.12402 30.314 62.07605C 30.169 61.591 29.975 61.10602 29.83 60.62201C 29.782 60.33105 29.733 60.04004 29.685 59.70105C 29.637 59.41003 29.54 59.11902 29.443 58.87701C 29.395 58.68304 29.347 58.53802 29.25 58.34399C 29.25 57.76202 29.25 57.76202 29.25 57.76202C 29.347 57.71405 29.395 57.76202 29.443 57.71405C 29.685 57.37402 30.12 57.32605 30.459 57.13202C 30.797 56.93805 31.232 56.89001 31.571 56.599C 31.619 56.55005 31.764 56.55005 31.861 56.55005C 31.957 56.50201 32.102 56.50201 32.151 56.453C 32.344 56.35602 32.489 56.211 32.682 56.11401C 32.779 56.06604 32.876 56.06604 32.973 56.06604C 33.021 56.06604 33.118 56.06604 33.118 56.01703C 33.311 55.77502 33.649 55.77502 33.891 55.62903C 34.229 55.43604 34.616 55.33905 35.003 55.19305C 35.051 55.19305 35.1 55.09601 35.148 55.09601C 35.245 55.04803 35.293 54.95105 35.341 54.95105C 35.728 54.95105 36.018 54.70905 36.357 54.56305C 36.743 54.36902 37.13 54.224 37.565 54.07904C 37.614 54.07904 37.71 53.98199 37.759 53.98199C 37.904 53.88501 38 53.836 38.145 53.78802C 38.339 53.73901 38.532 53.69104 38.725 53.59399C 38.774 53.54504 38.822 53.448 38.871 53.40002C 39.209 53.40002 39.209 53.40002 39.209 53.40002C 39.209 53.64203 39.402 53.64203 39.547 53.69104C 39.837 53.78802 40.127 53.69104 40.418 53.98199C 40.563 54.07904 40.853 54.07904 41.046 54.17505C 41.191 54.17505 41.336 54.27203 41.433 54.27203C 41.675 54.36902 41.916 54.466 42.158 54.51501C 42.303 54.56305 42.448 54.612 42.545 54.66003C 42.786 54.80603 43.028 54.90204 43.318 54.90204C 43.415 54.90204 43.512 54.95105 43.657 54.99902C 43.753 55.04803 43.947 55.04803 43.995 55.14502C 44.237 55.43604 44.575 55.242 44.865 55.43604C 45.059 55.58105 45.3 55.72601 45.59 55.67804C 45.784 55.67804 45.929 55.823 46.074 55.87201C 46.509 56.01703 46.992 56.06604 47.379 56.26001C 47.573 56.40503 47.863 56.35602 48.056 56.55005C 48.104 56.55005 48.104 56.55005 48.104 56.55005C 48.394 56.64703 48.636 56.74402 48.926 56.79303C 49.168 56.89001 49.41 56.89001 49.603 56.987C 49.845 57.08301 50.086 57.18005 50.28 57.32605C 50.328 57.32605 50.376 57.37402 50.425 57.37402C 50.667 57.27704 50.86 57.47101 51.053 57.56805C 51.102 57.56805 51.15 57.71405 51.15 57.76202C 51.15 57.90704 51.15 58.05304 51.12 58.18005z" stroke="none" fill="#92A3B2" fill-rule="evenodd" /></g><g clip-path="url(#64)"><g clip-path="url(#65)"></g></g><g clip-path="url(#66)"><path transform="matrix(1 0 0 -1 0 841)" d="M81.36 57.46002C 81.64 57.14301 81.773 56.87903 82.038 56.61505C 82.038 56.61505 82.17 56.48303 82.17 56.61505C 83.495 56.87903 84.688 57.14301 86.013 57.14301C 86.808 57.14301 87.471 57.14301 88.266 57.01105C 88.929 56.87903 89.459 56.61505 89.724 55.95605C 89.724 55.95605 89.856 55.95605 89.856 55.95605C 90.519 55.95605 91.049 55.95605 91.711 55.95605C 91.844 55.95605 91.844 56.08801 91.844 56.08801C 91.976 56.22003 92.109 56.35101 92.241 56.48303C 92.639 56.87903 93.169 57.01105 93.567 57.14301C 94.362 57.27502 95.157 57.27502 95.952 57.14301C 97.012 57.14301 98.072 56.87903 99.132 56.61505C 99.397 56.61505 99.53 56.61505 99.662 56.74701C 99.795 57.01105 100.06 57.14301 100.192 57.40704C 100.192 57.40704 100.192 57.40704 100.06 57.40704C 98.602 57.935 97.012 58.33105 95.289 58.46301C 94.627 58.59503 94.097 58.46301 93.434 58.46301C 92.506 58.19904 91.844 57.935 91.181 57.27502C 91.049 57.01105 90.651 57.01105 90.386 57.27502C 90.386 57.27502 90.254 57.40704 90.121 57.539C 89.459 58.06702 88.796 58.19904 88.001 58.33105C 87.073 58.46301 86.278 58.46301 85.351 58.33105C 84.158 58.19904 83.098 57.80304 81.905 57.539C 81.773 57.40704 81.64 57.40704 81.36 57.46002M100.56 58.30005C 100.59 58.46301 100.59 58.46301 100.59 58.59503C 100.59 62.15802 100.59 65.72003 100.59 69.28302C 100.59 69.547 100.457 69.67902 100.325 69.67902C 99.265 70.60303 98.072 71.13 96.614 71.26202C 95.687 71.39404 94.892 71.26202 94.097 70.99902C 93.036 70.60303 92.241 70.20703 91.446 69.547C 91.314 69.547 91.314 69.41504 91.314 69.41504C 91.314 65.85205 91.314 62.42102 91.314 58.85901C 91.314 58.85901 91.314 58.72705 91.314 58.72705C 91.446 58.72705 91.446 58.85901 91.579 58.85901C 91.844 58.99103 92.241 59.12305 92.506 59.25403C 93.434 59.51801 94.494 59.65002 95.422 59.51801C 96.747 59.51801 97.94 59.25403 99.132 58.85901C 99.662 58.72705 100.06 58.46301 100.56 58.30005zM81.11 58.33105C 81.11 58.33105 81.243 58.33105 81.243 58.33105C 82.435 58.72705 83.495 59.12305 84.688 59.25403C 85.881 59.51801 86.941 59.51801 88.133 59.38605C 88.796 59.25403 89.459 59.12305 90.121 58.72705C 90.254 58.72705 90.254 58.72705 90.254 58.72705C 90.254 58.72705 90.254 58.85901 90.254 58.85901C 90.254 62.289 90.254 65.58801 90.254 69.01904C 90.254 69.151 90.386 69.41504 90.254 69.547C 90.254 69.67902 89.989 69.67902 89.856 69.81104C 89.061 70.33905 88.133 70.867 87.073 71.13C 86.013 71.39404 84.953 71.39404 83.893 71.13C 82.965 70.867 82.038 70.47101 81.243 69.67902C 81.11 69.67902 81.11 69.547 81.11 69.41504C 81.11 65.85205 81.11 62.15802 81.11 58.46301C 81.11 58.46301 81.11 58.46301 81.12 58.30005M80.04 63.58002C 80.05 65.72003 80.05 67.70001 80.05 69.67902C 80.05 69.94305 80.05 70.07501 80.183 70.20703C 81.243 71.13 82.303 71.79004 83.628 72.18604C 84.556 72.45001 85.483 72.45001 86.411 72.31805C 87.736 72.18604 88.796 71.65802 89.856 70.99902C 90.121 70.867 90.386 70.73505 90.784 70.47101C 90.784 70.47101 90.784 70.47101 90.916 70.47101C 91.711 70.99902 92.506 71.526 93.434 71.79004C 94.494 72.18604 95.687 72.45001 96.879 72.31805C 98.072 72.18604 99.265 71.79004 100.325 71.13C 100.722 70.867 101.12 70.60303 101.385 70.20703C 101.517 70.07501 101.65 69.94305 101.65 69.81104C 101.65 65.72003 101.65 61.63 101.65 57.40704C 101.65 57.40704 101.517 57.40704 101.517 57.27502C 101.12 56.74701 100.722 56.35101 100.192 55.82404C 100.192 55.82404 100.192 55.69202 100.06 55.69202C 99.927 55.42804 99.795 55.42804 99.53 55.42804C 98.735 55.56 97.94 55.82404 97.144 55.95605C 96.482 56.08801 95.819 56.22003 95.024 56.22003C 94.494 56.22003 93.964 56.22003 93.302 55.95605C 93.036 55.82404 92.771 55.69202 92.639 55.29602C 92.639 55.03204 92.506 54.90002 92.241 54.90002C 91.844 54.90002 91.446 54.90002 91.049 54.90002C 90.519 54.90002 89.989 54.90002 89.326 54.90002C 89.061 54.90002 88.929 55.03204 88.796 55.29602C 88.796 55.56 88.663 55.69202 88.531 55.82404C 88.133 55.95605 87.736 56.08801 87.338 56.08801C 86.543 56.22003 85.748 56.08801 84.953 55.95605C 84.025 55.82404 83.098 55.69202 82.17 55.42804C 82.17 55.42804 82.038 55.42804 82.038 55.42804C 81.773 55.42804 81.508 55.56 81.375 55.69202C 81.375 55.82404 81.243 55.95605 81.11 56.08801C 80.845 56.48303 80.448 56.87903 80.05 57.27502C 80.05 57.40704 80.05 57.40704 80.05 57.539C 80.05 59.51801 80.05 61.63 80.04 63.58002z" stroke="none" fill="#92A3B2" fill-rule="evenodd" /><path transform="matrix(1 0 0 -1 0 841)" d="M98.16 132.46C 99.697 132.423 101.025 133.751 101.025 135.345C 101.025 137.072 99.697 138.4 98.102 138.4C 96.508 138.4 95.046 137.072 95.046 135.345C 95.046 133.751 96.508 132.423 98.16 132.46M96.12 120.82C 96.109 122.46 97.438 123.789 99.032 123.789C 100.627 123.789 101.956 122.46 101.956 120.866C 101.956 119.272 100.627 117.944 99.032 117.944C 97.438 117.944 96.109 119.272 96.12 120.82zM103.56 120.82C 103.55 123.39 101.557 125.383 99.032 125.383C 96.508 125.383 94.515 123.39 94.515 120.866C 94.515 118.342 96.508 116.35 99.032 116.35C 101.557 116.35 103.55 118.342 103.56 120.82zM84 123.82C 85.612 123.789 87.074 122.46 87.074 120.866C 87.074 119.272 85.745 117.944 84.018 117.944C 82.423 117.944 81.094 119.272 81.094 120.866C 81.094 122.46 82.423 123.789 84 123.82zM84 125.38C 81.493 125.383 79.5 123.39 79.5 120.866C 79.5 118.342 81.493 116.35 84.018 116.35C 86.542 116.35 88.668 118.342 88.668 120.866C 88.668 123.39 86.542 125.383 84 125.38zM90.72 127.78C 90.794 127.6411 90.927 127.508 91.06 127.508C 91.857 126.844 92.522 126.1801 93.186 125.515C 93.452 125.383 93.585 125.117 93.585 124.718C 93.452 123.257 93.186 121.796 93.053 120.335C 92.92 119.538 92.787 118.741 92.654 117.944C 92.654 117.546 92.256 117.147 91.857 117.147C 91.459 117.147 91.193 117.413 91.06 117.944C 91.06 118.741 90.927 119.538 90.794 120.335C 90.794 121.132 90.661 121.929 90.528 122.859C 90.528 122.992 90.528 123.124 90.528 123.39C 90.528 123.39 90.396 123.523 90.263 123.656C 89.067 124.453 87.738 125.383 86.542 126.312C 86.144 126.578 85.878 126.711 85.745 127.109C 85.346 127.773 85.346 128.438 85.745 129.1021C 86.011 129.633 86.409 130.032 86.808 130.4301C 87.871 131.626 89.067 132.5551 90.396 133.22C 91.326 133.751 92.123 134.017 93.053 134.282C 93.319 134.282 93.452 134.282 93.585 134.282C 93.983 134.282 94.116 134.149 94.382 133.884C 95.578 132.423 96.773 131.094 97.969 129.633C 98.102 129.5 98.102 129.5 98.235 129.5C 99.165 129.5 100.228 129.5 101.158 129.5C 101.557 129.5 101.823 129.367 101.956 128.969C 102.088 128.438 101.69 128.039 101.291 127.906C 101.158 127.906 101.158 127.906 101.158 127.906C 99.962 127.906 98.899 127.906 97.836 127.906C 97.571 127.906 97.305 128.039 97.172 128.172C 96.375 128.836 95.578 129.367 94.78 130.032C 94.78 130.032 94.648 130.164 94.648 130.032C 93.319 129.5 92.123 128.836 90.927 127.906C 90.794 127.906 90.794 127.906 90.72 127.78z" stroke="none" fill="#92A3B2" fill-rule="evenodd" /><g transform="matrix(0.1615385 0 0 0.1616544 34.68 20.33997)"><g transform="matrix(1 0 0 1 0 0)"><image x="0" y="0" xlink:href="img_01.png" width="520" height="677" /></g></g><g transform="matrix(0.8074809 0 0 0.8108737 173.16 93.89996)"><g transform="matrix(1 0 0 1 0 0)"><image x="0" y="0" xlink:href="img_02.png" width="524" height="103" /></g></g><g transform="matrix(0.3675 0 0 0.3696774 79.68 643.14)"><g transform="matrix(1 0 0 1 0 0)"><image x="0" y="0" xlink:href="img_03.png" width="64" height="62" /></g></g></g><g clip-path="url(#67)"><g clip-path="url(#68)"></g></g><g clip-path="url(#69)"><path transform="matrix(1 0 0 -1 0 841)" d="M25.08 518.98C 19.045 523.464 19.045 523.464 19.045 523.464C 19.045 524.469 19.045 524.469 19.045 524.469C 31.055 524.469 31.055 524.469 31.055 524.469C 31.055 523.464 31.055 523.464 31.055 523.464C 25.104 518.941 25.104 518.941 25.104 518.941M31.08 517.54C 27.701 520.348 27.701 520.348 27.701 520.348C 31.055 522.76 31.055 522.76 31.055 522.76C 31.055 517.5341 31.055 517.5341 31.08 517.54zM22.44 520.3C 19.045 517.5341 19.045 517.5341 19.045 517.5341C 19.045 522.76 19.045 522.76 19.045 522.76C 22.399 520.348 22.399 520.348 22.44 520.3zM31.08 516.8201C 19.045 516.83 19.045 516.83 19.045 516.83C 22.724 519.946 22.724 519.946 22.724 519.946C 25.104 518.238 25.104 518.238 25.104 518.238C 27.376 519.946 27.376 519.946 27.376 519.946C 31.055 516.83 31.055 516.83 31.08 516.8201zM15.12 520.66C 15.15 526.178 19.586 530.6 25.104 530.6C 30.514 530.6 34.95 526.178 34.95 520.65C 34.95 515.222 30.514 510.8 25.104 510.8C 19.586 510.8 15.15 515.222 15.12 520.66z" stroke="none" fill="#FFFFFF" fill-rule="evenodd" /><path transform="matrix(1 0 0 -1 0 841)" d="M27.72 668.74C 29.206 667.928 30.183 666.217 30.183 665.239C 30.183 663.772 27.983 662.794 25.05 662.794C 22.239 662.794 19.917 663.772 19.917 665.239C 19.917 666.217 20.894 667.928 22.361 668.906C 22.972 668.417 23.828 668.172 24.928 668.172C 26.028 668.172 27.006 668.417 27.739 668.783M25.08 675.46C 23.339 675.506 21.872 674.0391 21.872 672.328C 21.872 670.617 23.339 669.15 25.05 669.15C 26.883 669.15 28.228 670.617 28.228 672.328C 28.228 674.0391 26.883 675.506 25.08 675.46zM15.12 669.1C 15.15 674.65 19.55 679.05 25.05 679.05C 30.428 679.05 34.95 674.65 34.95 669.15C 34.95 663.65 30.428 659.25 25.05 659.25C 19.55 659.25 15.15 663.65 15.12 669.1z" stroke="none" fill="#FFFFFF" fill-rule="evenodd" /><path transform="matrix(1 0 0 -1 0 841)" d="M27.72 569.14C 27.009 568.447 27.009 567.725 26.162 567.725C 25.421 567.725 24.679 568.447 23.938 569.1691C 23.197 569.891 22.35 570.6121 22.35 571.334C 22.35 572.056 23.197 572.056 23.938 572.778C 24.679 573.397 22.35 575.562 21.609 575.562C 20.868 575.562 19.385 573.397 19.385 573.397C 19.385 572.056 20.868 569.1691 22.35 567.725C 23.938 566.281 27.009 564.837 28.491 564.837C 28.491 564.837 30.715 566.281 30.715 567.0031C 30.715 567.725 28.491 569.891 27.72 569.14M15.12 570.22C 15.15 575.666 19.597 580.1 25.103 580.1C 30.503 580.1 34.95 575.666 34.95 570.2C 34.95 564.734 30.503 560.3 25.103 560.3C 19.597 560.3 15.15 564.734 15.12 570.22z" stroke="none" fill="#FFFFFF" fill-rule="evenodd" /><path transform="matrix(1 0 0 -1 0 841)" d="M25.08 624.34C 23.303 624.341 21.821 623 21.821 621.247C 21.821 619.597 23.303 618.05 25.103 618.05C 26.797 618.05 28.385 619.597 28.385 621.247C 28.385 623 26.797 624.341 25.103 624.341M25.103 613.5131C 25.103 613.5131 20.232 618.669 20.232 621.247C 20.232 623.722 22.456 625.8881 25.103 625.8881C 27.75 625.8881 29.868 623.722 29.868 621.247C 29.868 618.669 25.103 613.5131 25.08 613.54M15.12 619.66C 15.15 625.166 19.597 629.6 25.103 629.6C 30.503 629.6 34.95 625.166 34.95 619.7C 34.95 614.234 30.503 609.8 25.103 609.8C 19.597 609.8 15.15 614.234 15.12 619.66z" stroke="none" fill="#FFFFFF" fill-rule="evenodd" /><g transform="matrix(0.7500001 0 0 0.7500001 15.24 360.3)"><g transform="matrix(1 0 0 1 0 0)"><image x="0" y="0" xlink:href="img_04.png" width="28" height="28" /></g></g></g><g clip-path="url(#70)"><g clip-path="url(#71)"></g></g><g clip-path="url(#72)"><g clip-path="url(#73)"></g></g><g clip-path="url(#74)"><g clip-path="url(#75)"></g></g><g clip-path="url(#76)"><g clip-path="url(#77)"></g></g><g clip-path="url(#78)"><path transform="matrix(1 0 0 -1 0 841)" d="M27.2 371.3L109.4 371.3L109.4 363.3L27.2 363.3z" stroke="none" fill="#92A3B2" fill-rule="nonzero" /><path transform="matrix(1 0 0 -1 0 841)" d="M27.2 336L109.4 336L109.4 328L27.2 328z" stroke="none" fill="#92A3B2" fill-rule="nonzero" /><path transform="matrix(1 0 0 -1 0 841)" d="M27.2 301.35L109.4 301.35L109.4 293.35L27.2 293.35z" stroke="none" fill="#92A3B2" fill-rule="nonzero" /><path transform="matrix(1 0 0 -1 0 841)" d="M27.2 267.4L109.4 267.4L109.4 259.4L27.2 259.4z" stroke="none" fill="#92A3B2" fill-rule="nonzero" /></g><g clip-path="url(#79)"><g clip-path="url(#80)"></g></g></g></g></svg>